C:\Users\israe\Dropbox\PhDWork\ExperimentalData\subject1\145\P1S145W10_filtered35.mot
nRows=18
nColumns=28

name C:\Users\israe\Dropbox\PhDWork\ExperimentalData\subject1\145\P1S145W10_filtered35.mot
datacolumns 28
datarows 18
range 0.4200000000 0.4370000000
endheader
time	ground_force_1_vx	ground_force_1_vy	ground_force_1_vz	ground_force_1_px	ground_force_1_py	ground_force_1_pz	ground_moment_1_mx	ground_moment_1_my	ground_moment_1_mz	ground_force_2_vx	ground_force_2_vy	ground_force_2_vz	ground_force_2_px	ground_force_2_py	ground_force_2_pz	ground_moment_2_mx	ground_moment_2_my	ground_moment_2_mz	ground_force_3_vx	ground_force_3_vy	ground_force_3_vz	ground_force_3_px	ground_force_3_py	ground_force_3_pz	ground_moment_3_mx	ground_moment_3_my	ground_moment_3_mz
        0.4200000000	       -0.0000000000	        0.0000000000	       -0.0000000000	        0.2000000000	        0.0000000000	       -0.9030000000	        0.0000000000	       -0.0000000000	       -0.0000000000	       -0.0000000000	        0.0000000000	       -0.0000000000	        0.2000000000	        0.0000000000	       -0.3000000000	        0.0000000000	        0.0000000000	        0.0000000000	       14.7951762093	      356.3845233243	       -5.0857988107	        0.2000000000	       -0.0000000000	        0.3030000000	       -4.5916979299	       -2.1557873709	      -24.9251386877	
        0.4210000000	       -0.0000000000	        0.0000000000	       -0.0000000000	        0.2000000000	        0.0000000000	       -0.9030000000	        0.0000000000	       -0.0000000000	       -0.0000000000	        0.0000000000	        0.0000000000	       -0.0000000000	        0.2000000000	        0.0000000000	       -0.3000000000	        0.0000000000	        0.0000000000	        0.0000000000	       14.9791382277	      357.7230087683	       -5.4203033343	        0.2000000000	       -0.0000000000	        0.3030000000	       -4.4173141018	       -2.2005049447	      -25.0075368051	
        0.4220000000	       -0.0000000000	        0.0000000000	       -0.0000000000	        0.2000000000	        0.0000000000	       -0.9030000000	        0.0000000000	       -0.0000000000	       -0.0000000000	        0.0000000000	        0.0000000000	       -0.0000000000	        0.2000000000	        0.0000000000	       -0.3000000000	        0.0000000000	        0.0000000000	        0.0000000000	       15.1768371306	      359.1392334734	       -5.7636817296	        0.2000000000	       -0.0000000000	        0.3030000000	       -4.2426154790	       -2.2451822886	      -25.0959296680	
        0.4230000000	       -0.0000000000	        0.0000000000	       -0.0000000000	        0.2000000000	        0.0000000000	       -0.9030000000	        0.0000000000	       -0.0000000000	       -0.0000000000	        0.0000000000	        0.0000000000	       -0.0000000000	        0.2000000000	        0.0000000000	       -0.3000000000	        0.0000000000	        0.0000000000	        0.0000000000	       15.3862414029	      360.6337641677	       -6.1170559948	        0.2000000000	       -0.0000000000	        0.3030000000	       -4.0680115257	       -2.2901045959	      -25.1905019745	
        0.4240000000	       -0.0000000000	        0.0000000000	       -0.0000000000	        0.2000000000	        0.0000000000	       -0.9030000000	        0.0000000000	       -0.0000000000	       -0.0000000000	        0.0000000000	        0.0000000000	       -0.0000000000	        0.2000000000	        0.0000000000	       -0.3000000000	        0.0000000000	        0.0000000000	        0.0000000000	       15.6057704858	      362.2059218351	       -6.4805687595	        0.2000000000	       -0.0000000000	        0.3030000000	       -3.8939585638	       -2.3356379188	      -25.2909410307	
        0.4250000000	       -0.0000000000	        0.0000000000	       -0.0000000000	        0.2000000000	        0.0000000000	       -0.9030000000	        0.0000000000	       -0.0000000000	       -0.0000000000	        0.0000000000	        0.0000000000	       -0.0000000000	        0.2000000000	        0.0000000000	       -0.3000000000	        0.0000000000	        0.0000000000	        0.0000000000	       15.8340694579	      363.8570418887	       -6.8541612189	        0.2000000000	       -0.0000000000	        0.3030000000	       -3.7210959355	       -2.3821364842	      -25.3965763299	
        0.4260000000	       -0.0000000000	        0.0000000000	       -0.0000000000	        0.2000000000	        0.0000000000	       -0.9030000000	        0.0000000000	       -0.0000000000	       -0.0000000000	        0.0000000000	        0.0000000000	       -0.0000000000	        0.2000000000	        0.0000000000	       -0.3000000000	        0.0000000000	        0.0000000000	        0.0000000000	       16.0694175364	      365.5926653476	       -7.2385692004	        0.2000000000	       -0.0000000000	        0.3030000000	       -3.5499169325	       -2.4299400591	      -25.5067107154	
        0.4270000000	       -0.0000000000	        0.0000000000	       -0.0000000000	        0.2000000000	        0.0000000000	       -0.9030000000	        0.0000000000	       -0.0000000000	       -0.0000000000	        0.0000000000	        0.0000000000	       -0.0000000000	        0.2000000000	        0.0000000000	       -0.3000000000	        0.0000000000	        0.0000000000	        0.0000000000	       16.3097007255	      367.4199638516	       -7.6349695030	        0.2000000000	       -0.0000000000	        0.3030000000	       -3.3804706801	       -2.4793408265	      -25.6207718397	
        0.4280000000	       -0.0000000000	        0.0000000000	       -0.0000000000	        0.2000000000	        0.0000000000	       -0.9030000000	        0.0000000000	        0.0000000000	       -0.0000000000	        0.0000000000	        0.0000000000	       -0.0000000000	        0.2000000000	        0.0000000000	       -0.3000000000	        0.0000000000	        0.0000000000	        0.0000000000	       16.5530200392	      369.3440570012	       -8.0439485077	        0.2000000000	       -0.0000000000	        0.3030000000	       -3.2122925550	       -2.5305615549	      -25.7381253769	
        0.4290000000	        0.0000000000	        0.0000000000	       -0.0000000000	        0.2000000000	        0.0000000000	       -0.9030000000	        0.0000000000	        0.0000000000	       -0.0000000000	        0.0000000000	        0.0000000000	       -0.0000000000	        0.2000000000	        0.0000000000	       -0.3000000000	       -0.0000000000	        0.0000000000	       -0.0000000000	       16.7980249936	      371.3677336461	       -8.4651090122	        0.2000000000	       -0.0000000000	        0.3030000000	       -3.0444008994	       -2.5837559059	      -25.8579779600	
        0.4300000000	        0.0000000000	        0.0000000000	       -0.0000000000	        0.2000000000	        0.0000000000	       -0.9030000000	        0.0000000000	        0.0000000000	        0.0000000000	        0.0000000000	        0.0000000000	       -0.0000000000	        0.2000000000	        0.0000000000	       -0.3000000000	       -0.0000000000	        0.0000000000	       -0.0000000000	       17.0435220115	      373.4919701212	       -8.8972823412	        0.2000000000	       -0.0000000000	        0.3030000000	       -2.8756620926	       -2.6389298007	      -25.9795733740	
        0.4310000000	        0.0000000000	        0.0000000000	       -0.0000000000	        0.2000000000	        0.0000000000	       -0.9030000000	        0.0000000000	        0.0000000000	        0.0000000000	        0.0000000000	        0.0000000000	        0.0000000000	        0.2000000000	        0.0000000000	       -0.3000000000	       -0.0000000000	       -0.0000000000	       -0.0000000000	       17.2882260774	      375.7147723975	       -9.3389177211	        0.2000000000	       -0.0000000000	        0.3030000000	       -2.7053539818	       -2.6958705030	      -26.1024240735	
        0.4320000000	        0.0000000000	        0.0000000000	       -0.0000000000	        0.2000000000	        0.0000000000	       -0.9030000000	       -0.0000000000	        0.0000000000	        0.0000000000	        0.0000000000	        0.0000000000	        0.0000000000	        0.2000000000	        0.0000000000	       -0.3000000000	       -0.0000000000	       -0.0000000000	       -0.0000000000	       17.5309088143	      378.0312863273	       -9.7883476318	        0.2000000000	       -0.0000000000	        0.3030000000	       -2.5332715090	       -2.7541521918	      -26.2264195573	
        0.4330000000	        0.0000000000	        0.0000000000	        0.0000000000	        0.2000000000	        0.0000000000	       -0.9030000000	       -0.0000000000	        0.0000000000	        0.0000000000	        0.0000000000	        0.0000000000	        0.0000000000	        0.2000000000	        0.0000000000	       -0.3000000000	       -0.0000000000	       -0.0000000000	       -0.0000000000	       17.7699985202	      380.4369059899	      -10.2436611119	        0.2000000000	       -0.0000000000	        0.3030000000	       -2.3594283012	       -2.8132130019	      -26.3518265789	
        0.4340000000	        0.0000000000	        0.0000000000	        0.0000000000	        0.2000000000	        0.0000000000	       -0.9030000000	       -0.0000000000	        0.0000000000	        0.0000000000	        0.0000000000	        0.0000000000	        0.0000000000	        0.2000000000	        0.0000000000	       -0.3000000000	       -0.0000000000	       -0.0000000000	       -0.0000000000	       18.0028552803	      382.9300844559	      -10.7022257283	        0.2000000000	       -0.0000000000	        0.3030000000	       -2.1837429506	       -2.8725681422	      -26.4793190664	
        0.4350000000	        0.0000000000	        0.0000000000	        0.0000000000	        0.2000000000	        0.0000000000	       -0.9030000000	       -0.0000000000	        0.0000000000	        0.0000000000	        0.0000000000	        0.0000000000	        0.0000000000	        0.2000000000	        0.0000000000	       -0.3000000000	       -0.0000000000	       -0.0000000000	       -0.0000000000	       18.2259907440	      385.5108140753	      -11.1604845026	        0.2000000000	       -0.0000000000	        0.3030000000	       -2.0057731781	       -2.9320432298	      -26.6100735640	
        0.4360000000	        0.0000000000	        0.0000000000	        0.0000000000	        0.2000000000	        0.0000000000	       -0.9030000000	       -0.0000000000	        0.0000000000	        0.0000000000	        0.0000000000	        0.0000000000	        0.0000000000	        0.2000000000	        0.0000000000	       -0.3000000000	       -0.0000000000	       -0.0000000000	       -0.0000000000	       18.4360937466	      388.1766311774	      -11.6144426245	        0.2000000000	       -0.0000000000	        0.3030000000	       -1.8246488077	       -2.9917867372	      -26.7457014825	
        0.4370000000	        0.0000000000	        0.0000000000	        0.0000000000	        0.2000000000	        0.0000000000	       -0.9030000000	       -0.0000000000	        0.0000000000	        0.0000000000	       -0.0000000000	        0.0000000000	        0.0000000000	        0.2000000000	        0.0000000000	       -0.3000000000	       -0.0000000000	       -0.0000000000	       -0.0000000000	       18.6305592207	      390.9230319260	      -12.0603720500	        0.2000000000	       -0.0000000000	        0.3030000000	       -1.6394183532	       -3.0520625245	      -26.8878867786	
